# xmcd
#
# Track frame offsets: 
#        150
#        15454
#        27167
#        46408
#        65322
#        79031
#        94490
#        110496
#        124532
#        143183
#
# Disc length: 2128 seconds
#
# Revision: 7
# Processed by: cddbd v1.5.2PL0 Copyright (c) Steve Scherf et al.
# Submitted via: ExactAudioCopyFreeDBPlugin 1.0
#
DISCID=7c084e0a
DTITLE=The Blues Brothers - 1981 - Best Of
DYEAR=1981
DGENRE=R&B
TTITLE0=Expressway To Your Heart
TTITLE1=Everybody Needs Somebody To Love
TTITLE2=I Don't Know
TTITLE3=She Caught The Katy
TTITLE4=Soul Man
TTITLE5=Rubber Biscuit
TTITLE6=Going Back To Miami
TTITLE7=Gimme Some Lovin'
TTITLE8=B Movie Box Car Blues
TTITLE9=Flip Flop And Fly
EXTD=YEAR: 1981
EXTT0=
EXTT1=
EXTT2=
EXTT3=
EXTT4=
EXTT5=
EXTT6=
EXTT7=
EXTT8=
EXTT9=
PLAYORDER=
